PathFileType	4	(X/Y/Z)	Walk10.trc
DataRate	CameraRate	NumFrames	NumMarkers	Units	OrigDataRate	OrigDataStartFrame	OrigNumFrames
200.000000	200.000000	6	61	mm	200.000000	321	495
Frame#	Times		LFHD		RFHD		CLAV		LASI		RASI		RACR1		RUA1		RFA1		RWRR		RCAR		LACR1		LUA1		LWRU		RTH3		LTH1		LTH3		LTH2		LTH4		LTB1		LTB2		LTB4		LLFC		RTB1		LCAR		LTB3		LFA1		STRN		RTB4		RWRU		RTB3		RTH2		LBHD		RMT5		RMFC		RLFC		RToe		RMT1		RTH4		RMMAL		RTB2		RTH1		LElbow		RElbow		LWRR		LMFC		T10		LPSI		RLMAL		RBHD		RBack		RCAL		RPSI		LToe		RElbowM		C7		LMMAL		LElbowM		LLMAL		LCAL		LMT5		LMT1
			X1	Y1	Z1	X2	Y2	Z2	X3	Y3	Z3	X4	Y4	Z4	X5	Y5	Z5	X6	Y6	Z6	X7	Y7	Z7	X8	Y8	Z8	X9	Y9	Z9	X10	Y10	Z10	X11	Y11	Z11	X12	Y12	Z12	X13	Y13	Z13	X14	Y14	Z14	X15	Y15	Z15	X16	Y16	Z16	X17	Y17	Z17	X18	Y18	Z18	X19	Y19	Z19	X20	Y20	Z20	X21	Y21	Z21	X22	Y22	Z22	X23	Y23	Z23	X24	Y24	Z24	X25	Y25	Z25	X26	Y26	Z26	X27	Y27	Z27	X28	Y28	Z28	X29	Y29	Z29	X30	Y30	Z30	X31	Y31	Z31	X32	Y32	Z32	X33	Y33	Z33	X34	Y34	Z34	X35	Y35	Z35	X36	Y36	Z36	X37	Y37	Z37	X38	Y38	Z38	X39	Y39	Z39	X40	Y40	Z40	X41	Y41	Z41	X42	Y42	Z42	X43	Y43	Z43	X44	Y44	Z44	X45	Y45	Z45	X46	Y46	Z46	X47	Y47	Z47	X48	Y48	Z48	X49	Y49	Z49	X50	Y50	Z50	X51	Y51	Z51	X52	Y52	Z52	X53	Y53	Z53	X54	Y54	Z54	X55	Y55	Z55	X56	Y56	Z56	X57	Y57	Z57	X58	Y58	Z58	X59	Y59	Z59	X60	Y60	Z60	X61	Y61	Z61

321	1.605	270.77	1575.5	16.41	267.56	1578.9	115.91	247.84	1294.7	69.527	226.13	885.27	-57.789	246.4	903.46	189.32	177.34	1320.2	239.14	158.61	1149.9	288.14	130.14	864.16	351.51	159.59	736.92	333.02	124.49	682.58	385.52	175.53	1340.1	-82.581	179.43	1169.3	-148.42	426.71	903.12	-143.87	294.53	588.77	235.72	145.17	720.93	-115.37	109.75	555.08	-90.127	181.06	630.19	-84.319	126.23	637.26	-103.72	27.394	314.67	-13.319	-51.276	271.85	-69.138	-40.247	261.31	-10.4	62.592	420.55	-75.895	389.58	350.74	174.07	471.34	845.99	-171	-102.75	205.02	-6.0536	313	932.68	-185.23	273.13	1159.8	74.728	392.56	263.81	169.18	96.999	746.85	358.77	394.41	178.33	161.2	311.99	692.91	232.52	135.8	1496.8	-7.4799	453.72	25.977	189.71	325.8	440.01	81.042	351.48	454.74	203.78	539.38	37.623	138.73	487.78	39.96	106.72	264.08	665.49	255.57	361.51	84.027	97.66	348.47	259.99	210.99	233.69	744.4	277.61	192.93	1015.2	-184.43	122.06	989.57	315.52	389.53	846.74	-159.1	45.352	415.24	55.715	65.515	1183.4	72.631	57.637	940.89	33.608	349.19	63.252	177.31	133.14	1507.8	135.21	61.894	1267.7	141.49	300.19	36.172	134.09	68.104	939.89	133.26	-123.02	21.642	10.612	106.78	983.23	240.04	137.31	1395.8	70.414	-198.34	167.93	29.109	174.42	985.74	-116.05	-218.06	162.91	-51.437	-272.17	187.38	-12.365	-187.17	47.57	-43.563	-167.59	39.277	36.187
322	1.61	277.83	1575.9	17.227	274.75	1579.3	116.72	255.63	1294.9	70.388	233.74	885.07	-56.638	253.86	904.42	190.14	185.5	1320.4	240.1	166.94	1150	289.04	139.24	864.12	352.16	169.05	736.99	333.31	134.27	682.36	385.75	183.18	1340.2	-81.653	185.81	1169.3	-147.25	430.68	900.12	-143.18	301.69	589.32	236.44	154.7	719.96	-114.35	121.78	553.52	-89.559	191.9	629.74	-83.403	136.98	635.95	-102.84	39.217	313.63	-13.26	-40.347	272.71	-69.272	-29.606	261.78	-10.557	76.204	418.8	-75.64	395.18	350	173.86	474.44	842.49	-170.6	-93.316	206.87	-6.4111	317.23	931.08	-184.2	280.94	1160	75.742	396.78	263.03	168.94	106.56	746.71	359.36	397.22	177.49	160.95	319.2	693.45	233.98	143.11	1496.7	-6.4401	454.22	25.24	189.97	332.64	440.93	81.624	358.68	454.99	204.04	540.23	35.262	138.13	488.28	38.446	106.39	271.13	665.96	256.45	362.37	83.816	97.685	353.29	259.86	211.45	240.59	744.74	278.68	198.07	1015	-183.04	130.61	989.6	316.36	392.76	844.18	-158.31	59.212	413.02	56.089	73.105	1183.7	73.503	65.132	940.81	33.601	350.17	63.139	177.45	140.61	1507.8	136.24	69.789	1268	142.66	300.58	36.66	134.39	75.427	940.19	133.34	-120.77	21.391	10.258	115.23	983.39	240.85	145.11	1396	71.47	-189.82	171.89	28.411	179.75	985.82	-114.51	-209.53	167.64	-52.06	-262.59	194.16	-13.15	-182.64	51.043	-44.019	-163.76	41.774	35.481
323	1.615	284.89	1576.3	18.046	281.95	1579.7	117.54	263.39	1295.1	71.19	241.26	884.95	-55.521	261.26	905.42	190.98	193.65	1320.5	241.01	175.28	1150.2	289.9	148.41	864.11	352.8	178.66	737.12	333.58	144.25	682.19	385.97	190.77	1340.4	-80.751	192.19	1169.3	-146.1	434.44	896.99	-142.52	308.57	589.79	237.22	164.24	719.05	-113.36	133.91	552.04	-89.001	202.79	629.4	-82.521	147.79	634.7	-101.99	51.326	312.71	-13.106	-29.059	273.64	-69.307	-18.624	262.37	-10.601	90.02	417.13	-75.334	400.47	349.23	173.74	477.26	838.84	-170.28	-83.477	208.82	-6.6443	321.31	929.48	-183.18	288.69	1160.2	76.684	400.74	262.23	168.76	116.26	746.6	359.95	399.82	176.68	160.73	326.24	693.88	235.53	150.41	1496.6	-5.417	454.63	24.675	190.28	339.19	441.71	82.245	365.56	455.14	204.36	540.93	33.285	137.65	488.68	37.214	106.15	277.97	666.38	257.37	363.1	83.652	97.737	357.81	259.69	211.93	247.33	745.04	279.76	203.15	1014.9	-181.64	139.16	989.67	317.19	395.72	841.53	-157.54	73.304	410.94	56.552	80.627	1184	74.345	72.549	940.76	33.591	351.02	63.041	177.61	148.09	1507.7	137.27	77.649	1268.3	143.81	300.9	37.071	134.68	82.683	940.51	133.41	-117.88	21.232	9.7987	123.65	983.59	241.66	152.88	1396.3	72.5	-180.84	175.91	27.861	185.02	986.01	-112.96	-200.52	172.42	-52.537	-252.55	200.88	-13.77	-177.46	54.77	-44.479	-159.2	44.485	34.731
324	1.62	291.94	1576.8	18.865	289.14	1580.2	118.36	271.1	1295.4	71.929	248.69	884.9	-54.447	268.61	906.47	191.83	201.8	1320.8	241.87	183.64	1150.4	290.73	157.66	864.14	353.43	188.4	737.31	333.83	154.42	682.07	386.18	198.31	1340.7	-79.881	198.57	1169.4	-144.97	438	893.74	-141.89	315.14	590.16	238.05	173.77	718.22	-112.42	146.11	550.66	-88.451	213.72	629.2	-81.68	158.62	633.53	-101.17	63.698	311.96	-12.853	-17.43	274.64	-69.238	-7.3144	263.09	-10.526	104.01	415.57	-74.978	405.45	348.44	173.71	479.8	835.07	-170.02	-73.239	210.87	-6.744	325.24	927.86	-182.16	296.35	1160.4	77.544	404.42	261.44	168.66	126.12	746.51	360.54	402.19	175.88	160.56	333.1	694.18	237.12	157.7	1496.6	-4.4141	454.95	24.256	190.61	345.45	442.34	82.902	372.1	455.17	204.74	541.5	31.664	137.27	488.99	36.237	105.98	284.6	666.74	258.32	363.69	83.531	97.816	362.01	259.48	212.42	253.94	745.33	280.82	208.16	1014.8	-180.23	147.73	989.78	318.02	398.43	838.82	-156.78	87.588	409.01	57.103	88.081	1184.5	75.158	79.893	940.76	33.591	351.73	62.956	177.79	155.56	1507.7	138.27	85.471	1268.7	144.93	301.16	37.407	134.96	89.88	940.85	133.47	-114.25	21.198	9.2356	132.05	983.83	242.46	160.63	1396.6	73.501	-171.39	179.97	27.474	190.22	986.3	-111.4	-191.04	177.2	-52.859	-242.05	207.47	-14.212	-171.59	58.707	-44.929	-153.85	47.381	33.953
325	1.625	299	1577.3	19.683	296.33	1580.6	119.18	278.76	1295.6	72.605	256.03	884.94	-53.423	275.92	907.54	192.7	209.94	1321	242.68	191.99	1150.7	291.51	166.99	864.2	354.05	198.28	737.55	334.05	164.78	681.99	386.38	205.77	1341	-79.05	204.93	1169.5	-143.86	441.35	890.39	-141.29	321.41	590.44	238.9	183.29	717.48	-111.52	158.36	549.41	-87.908	224.65	629.14	-80.88	169.47	632.48	-100.38	76.314	311.37	-12.501	-5.4803	275.7	-69.061	4.307	263.93	-10.328	118.13	414.15	-74.576	410.09	347.64	173.79	482.06	831.19	-169.82	-62.61	212.99	-6.7054	329.03	926.25	-181.16	303.95	1160.6	78.314	407.83	260.66	168.63	136.11	746.45	361.12	404.35	175.12	160.43	339.79	694.36	238.75	164.99	1496.7	-3.4344	455.2	23.957	190.96	351.4	442.8	83.59	378.25	455.09	205.2	541.95	30.369	136.97	489.22	35.484	105.86	291.02	667.05	259.27	364.17	83.449	97.921	365.87	259.22	212.91	260.44	745.61	281.86	213.12	1014.9	-178.81	156.3	989.93	318.85	400.88	836.05	-156.05	102.03	407.29	57.737	95.467	1185	75.941	87.167	940.82	33.614	352.31	62.882	177.97	163.02	1507.7	139.25	93.249	1269.1	146.01	301.35	37.672	135.23	97.026	941.23	133.54	-109.81	21.325	8.5766	140.43	984.09	243.27	168.35	1397	74.473	-161.49	184.04	27.255	195.34	986.69	-109.84	-181.09	181.96	-53.021	-231.13	213.87	-14.461	-164.97	62.8	-45.356	-147.66	50.422	33.166
326	1.63	306.06	1577.9	20.501	303.52	1581.1	120	286.37	1296	73.216	263.28	885.06	-52.455	283.18	908.64	193.58	218.06	1321.3	243.44	200.35	1151	292.25	176.4	864.3	354.65	208.28	737.84	334.25	175.31	681.98	386.57	213.16	1341.5	-78.261	211.27	1169.8	-142.77	444.5	886.94	-140.71	327.36	590.63	239.77	192.77	716.86	-110.67	170.62	548.32	-87.371	235.58	629.24	-80.122	180.31	631.56	-99.62	89.155	310.97	-12.051	6.7699	276.83	-68.779	16.226	264.91	-10.01	132.35	412.9	-74.131	414.41	346.84	173.98	484.05	827.22	-169.67	-51.598	215.18	-6.5275	332.66	924.63	-180.16	311.46	1160.9	78.989	410.97	259.89	168.68	146.25	746.42	361.71	406.29	174.4	160.36	346.3	694.41	240.37	172.26	1496.8	-2.4803	455.37	23.755	191.31	357.03	443.09	84.304	383.99	454.9	205.74	542.29	29.365	136.74	489.38	34.927	105.8	297.23	667.32	260.22	364.53	83.4	98.05	369.39	258.95	213.4	266.82	745.88	282.86	218.02	1015	-177.38	164.87	990.11	319.67	403.09	833.23	-155.33	116.58	405.81	58.445	102.79	1185.6	76.695	94.377	940.94	33.669	352.78	62.819	178.17	170.47	1507.8	140.21	100.98	1269.7	147.06	301.47	37.874	135.48	104.13	941.64	133.63	-104.49	21.646	7.84	148.78	984.37	244.06	176.02	1397.4	75.412	-151.15	188.09	27.206	200.4	987.18	-108.28	-170.68	186.64	-53.023	-219.83	220.03	-14.511	-157.59	66.992	-45.746	-140.58	53.569	32.394
